<svg width="61" height="61" viewBox="0 0 61 61" fill="none" xmlns="http://www.w3.org/2000/svg">
<rect width="61" height="61" rx="30.5" fill="#FF0000"/>
<path fill-rule="evenodd" clip-rule="evenodd" d="M42.7379 20.6729C44.0229 21.0353 45.0361 22.0965 45.3821 23.4424C46.0246 25.9012 45.9999 31.0259 45.9999 31.0259C45.9999 31.0259 45.9999 36.1247 45.3821 38.5835C45.0361 39.9294 44.0229 40.9906 42.7379 41.3529C40.3903 42 30.9999 42 30.9999 42C30.9999 42 21.6342 42 19.2619 41.3271C17.9769 40.9647 16.9638 39.9035 16.6178 38.5576C16 36.1247 16 31 16 31C16 31 16 25.9012 16.6178 23.4424C16.9638 22.0965 18.0016 21.0094 19.2619 20.6471C21.6095 20 30.9999 20 30.9999 20C30.9999 20 40.3903 20 42.7379 20.6729ZM35.8187 31L28.0098 35.7106V26.2894L35.8187 31Z" fill="white"/>
</svg>
