<svg width="61" height="61" viewBox="0 0 61 61" fill="none" xmlns="http://www.w3.org/2000/svg">
<rect width="61" height="61" rx="30.5" fill="#5181B8"/>
<path fill-rule="evenodd" clip-rule="evenodd" d="M44.3117 24.2188C44.5203 23.5163 44.3117 23 43.3191 23H40.0371C39.2025 23 38.8181 23.446 38.6094 23.9379C38.6094 23.9379 36.9403 28.0478 34.5758 30.7175C33.8109 31.4903 33.4632 31.7359 33.0459 31.7359C32.8373 31.7359 32.5353 31.4903 32.5353 30.7878V24.2188C32.5353 23.3756 32.2932 23 31.5976 23H26.4402C25.9188 23 25.6051 23.3913 25.6051 23.7622C25.6051 24.5615 26.7871 24.7458 26.909 26.9939V31.8768C26.909 32.9474 26.7177 33.1416 26.3005 33.1416C25.1878 33.1416 22.4816 29.0129 20.8762 24.2891C20.5616 23.3709 20.2461 23 19.4073 23H16.1253C15.1875 23 15 23.446 15 23.9379C15 24.8161 16.1128 29.1721 20.1809 34.9331C22.8932 38.867 26.714 41 30.191 41C32.2775 41 32.5353 40.5263 32.5353 39.7104V36.7368C32.5353 35.7895 32.733 35.6005 33.3934 35.6005C33.8805 35.6005 34.7148 35.8463 36.6622 37.7432C38.8874 39.9911 39.2541 41 40.506 41H43.788C44.7257 41 45.1945 40.5263 44.924 39.5915C44.6282 38.6598 43.5657 37.3083 42.1559 35.7059C41.3909 34.7924 40.2434 33.8088 39.896 33.3171C39.4091 32.6847 39.5481 32.4038 39.896 31.842C39.896 31.842 43.8944 26.1512 44.3117 24.219V24.2188Z" fill="white"/>
</svg>
