<svg width="61" height="61" viewBox="0 0 61 61" fill="none" xmlns="http://www.w3.org/2000/svg">
<rect width="61" height="61" rx="30.5" fill="url(#paint0_linear)"/>
<path d="M26.6677 31C26.6677 28.6069 28.6073 26.6663 31.0005 26.6663C33.3938 26.6663 35.3344 28.6069 35.3344 31C35.3344 33.3931 33.3938 35.3337 31.0005 35.3337C28.6073 35.3337 26.6677 33.3931 26.6677 31ZM24.3249 31C24.3249 34.6868 27.3136 37.6753 31.0005 37.6753C34.6875 37.6753 37.6761 34.6868 37.6761 31C37.6761 27.3132 34.6875 24.3247 31.0005 24.3247C27.3136 24.3247 24.3249 27.3132 24.3249 31ZM36.3803 24.06C36.3802 24.3685 36.4716 24.6702 36.6429 24.9268C36.8142 25.1834 37.0578 25.3834 37.3428 25.5016C37.6278 25.6198 37.9415 25.6508 38.2441 25.5907C38.5468 25.5307 38.8248 25.3822 39.0431 25.1641C39.2614 24.946 39.4101 24.6681 39.4704 24.3656C39.5307 24.063 39.4999 23.7493 39.382 23.4642C39.264 23.1791 39.0641 22.9354 38.8076 22.7639C38.5512 22.5923 38.2496 22.5007 37.941 22.5006H37.9404C37.5268 22.5008 37.1302 22.6651 36.8377 22.9575C36.5452 23.2499 36.3807 23.6464 36.3803 24.06ZM25.7483 41.5817C24.4808 41.524 23.7919 41.3128 23.3341 41.1345C22.7271 40.8982 22.294 40.6168 21.8387 40.1621C21.3834 39.7074 21.1015 39.2748 20.8663 38.6678C20.6878 38.2102 20.4767 37.5211 20.419 36.2537C20.356 34.8834 20.3434 34.4717 20.3434 31.0001C20.3434 27.5285 20.357 27.118 20.419 25.7465C20.4768 24.4791 20.6894 23.7913 20.8663 23.3324C21.1025 22.7254 21.384 22.2924 21.8387 21.8371C22.2934 21.3818 22.7261 21.0999 23.3341 20.8647C23.7917 20.6862 24.4808 20.4751 25.7483 20.4175C27.1187 20.3545 27.5303 20.3419 31.0005 20.3419C34.4707 20.3419 34.8828 20.3555 36.2543 20.4175C37.5218 20.4752 38.2096 20.6879 38.6685 20.8647C39.2755 21.0999 39.7086 21.3824 40.1639 21.8371C40.6192 22.2918 40.9001 22.7254 41.1364 23.3324C41.3148 23.79 41.5259 24.4791 41.5836 25.7465C41.6466 27.118 41.6592 27.5285 41.6592 31.0001C41.6592 34.4717 41.6466 34.8822 41.5836 36.2537C41.5258 37.5211 41.3137 38.21 41.1364 38.6678C40.9001 39.2748 40.6186 39.7078 40.1639 40.1621C39.7092 40.6164 39.2755 40.8982 38.6685 41.1345C38.2109 41.313 37.5218 41.5241 36.2543 41.5817C34.8839 41.6447 34.4723 41.6573 31.0005 41.6573C27.5288 41.6573 27.1183 41.6447 25.7483 41.5817ZM25.6407 18.0787C24.2567 18.1418 23.311 18.3612 22.4851 18.6826C21.6297 19.0144 20.9057 19.4596 20.1821 20.182C19.4586 20.9044 19.0145 21.6296 18.6826 22.4849C18.3612 23.3113 18.1418 24.2564 18.0787 25.6404C18.0147 27.0265 18 27.4696 18 31C18 34.5304 18.0147 34.9735 18.0787 36.3596C18.1418 37.7437 18.3612 38.6887 18.6826 39.5151C19.0145 40.3699 19.4587 41.0959 20.1821 41.818C20.9056 42.54 21.6297 42.9846 22.4851 43.3174C23.3125 43.6388 24.2567 43.8582 25.6407 43.9213C27.0276 43.9843 27.47 44 31.0005 44C34.531 44 34.9742 43.9853 36.3604 43.9213C37.7445 43.8582 38.6895 43.6388 39.516 43.3174C40.3708 42.9846 41.0954 42.5404 41.8189 41.818C42.5425 41.0956 42.9856 40.3699 43.3185 39.5151C43.6398 38.6887 43.8603 37.7436 43.9223 36.3596C43.9853 34.9725 44 34.5304 44 31C44 27.4696 43.9853 27.0265 43.9223 25.6404C43.8593 24.2563 43.6398 23.3108 43.3185 22.4849C42.9856 21.6301 42.5413 20.9056 41.8189 20.182C41.0965 19.4585 40.3708 19.0144 39.517 18.6826C38.6895 18.3612 37.7444 18.1407 36.3614 18.0787C34.9752 18.0157 34.5321 18 31.0016 18C27.471 18 27.0276 18.0147 25.6407 18.0787Z" fill="white"/>
<defs>
<linearGradient id="paint0_linear" x1="35.8865" y1="-2.7605" x2="1.20544e-06" y2="67.6322" gradientUnits="userSpaceOnUse">
<stop stop-color="#FB16BB"/>
<stop offset="1" stop-color="#FFBE16"/>
</linearGradient>
</defs>
</svg>
